<svg width="130" height="131" viewBox="0 0 130 131" fill="none" xmlns="http://www.w3.org/2000/svg">
<rect y="1" width="130" height="130" fill="#00FFFF"/>
<path d="M91.6289 54.0117L96.5039 39.9375H98.9648L92.6367 57H90.6445L84.3281 39.9375H86.7773L91.6289 54.0117Z" fill="black"/>
<path d="M97.9922 80.9375V92.5391C97.9844 94.1484 97.4766 95.4648 96.4688 96.4883C95.4688 97.5117 94.1094 98.0859 92.3906 98.2109L91.793 98.2344C89.9258 98.2344 88.4375 97.7305 87.3281 96.7227C86.2188 95.7148 85.6562 94.3281 85.6406 92.5625V80.9375H87.8672V92.4922C87.8672 93.7266 88.207 94.6875 88.8867 95.375C89.5664 96.0547 90.5352 96.3945 91.793 96.3945C93.0664 96.3945 94.0391 96.0547 94.7109 95.375C95.3906 94.6953 95.7305 93.7383 95.7305 92.5039V80.9375H97.9922Z" fill="black"/>
<line x1="63.4999" y1="0.992806" x2="65.3703" y2="130.979" stroke="black"/>
<path d="M17.4062 73.2891C16.0234 72.8984 14.9805 72.2539 14.2773 71.3555C13.582 70.4648 13.2344 69.2852 13.2344 67.8164V65.4844C13.2344 63.5859 12.4062 62.6367 10.75 62.6367V60.9375C12.4062 60.9375 13.2344 59.9922 13.2344 58.1016V55.6641C13.25 54.2344 13.5977 53.082 14.2773 52.207C14.9648 51.3242 16.0078 50.6836 17.4062 50.2852L17.8516 51.6328C16.2188 52.1562 15.4023 53.5195 15.4023 55.7227V58.0898C15.4023 59.8633 14.75 61.0977 13.4453 61.793C14.75 62.4961 15.4023 63.7422 15.4023 65.5312V67.9453C15.4258 70.0938 16.2422 71.4258 17.8516 71.9414L17.4062 73.2891ZM25.5391 73.2891C24.1562 72.8984 23.1133 72.2539 22.4102 71.3555C21.7148 70.4648 21.3672 69.2852 21.3672 67.8164V65.4844C21.3672 63.5859 20.5391 62.6367 18.8828 62.6367V60.9375C20.5391 60.9375 21.3672 59.9922 21.3672 58.1016V55.6641C21.3828 54.2344 21.7305 53.082 22.4102 52.207C23.0977 51.3242 24.1406 50.6836 25.5391 50.2852L25.9844 51.6328C24.3516 52.1562 23.5352 53.5195 23.5352 55.7227V58.0898C23.5352 59.8633 22.8828 61.0977 21.5781 61.793C22.8828 62.4961 23.5352 63.7422 23.5352 65.5312V67.9453C23.5586 70.0938 24.375 71.4258 25.9844 71.9414L25.5391 73.2891ZM32.4414 71.9414C34.0273 71.4336 34.8477 70.1406 34.9023 68.0625V65.4844C34.9023 63.6797 35.6094 62.4492 37.0234 61.793C35.6094 61.1523 34.9023 59.9219 34.9023 58.1016V55.7227C34.9023 53.5195 34.0859 52.1562 32.4531 51.6328L32.8984 50.2852C34.2812 50.6758 35.3203 51.3125 36.0156 52.1953C36.7109 53.0703 37.0625 54.2305 37.0703 55.6758V58.1367C37.0703 60.0039 37.8984 60.9375 39.5547 60.9375V62.6367C37.8984 62.6367 37.0703 63.5859 37.0703 65.4844V67.8516C37.0703 69.3203 36.7148 70.4961 36.0039 71.3789C35.3008 72.2617 34.2656 72.8984 32.8984 73.2891L32.4414 71.9414ZM40.5742 71.9414C42.1602 71.4336 42.9805 70.1406 43.0352 68.0625V65.4844C43.0352 63.6797 43.7422 62.4492 45.1562 61.793C43.7422 61.1523 43.0352 59.9219 43.0352 58.1016V55.7227C43.0352 53.5195 42.2188 52.1562 40.5859 51.6328L41.0312 50.2852C42.4141 50.6758 43.4531 51.3125 44.1484 52.1953C44.8438 53.0703 45.1953 54.2305 45.2031 55.6758V58.1367C45.2031 60.0039 46.0312 60.9375 47.6875 60.9375V62.6367C46.0312 62.6367 45.2031 63.5859 45.2031 65.4844V67.8516C45.2031 69.3203 44.8477 70.4961 44.1367 71.3789C43.4336 72.2617 42.3984 72.8984 41.0312 73.2891L40.5742 71.9414Z" fill="black"/>
</svg>
